<?xml version="1.0" encoding="UTF-8"?>
<svg id="Layer_1" xmlns="http://www.w3.org/2000/svg" baseProfile="tiny" version="1.2" viewBox="0 0 1200 292.8">
  <!-- Generator: Adobe Illustrator 29.6.1, SVG Export Plug-In . SVG Version: 2.1.1 Build 9)  -->
  <g>
    <path d="M109.8,0h76.1c0,97.6,0,195.2,0,292.8h-76c0-97.6-.1-195.2,0-292.8Z" fill="#00ad59"/>
    <path d="M0,52.7c25.1,0,50.3,0,75.5,0,.8,62.5.6,125,0,187.5-25.1-.2-50.3-.1-75.5-.1V52.7Z" fill="#00ad59"/>
    <path d="M220.4,52.6c25.1.2,50.3,0,75.5,0,.6,62.5.5,125,0,187.4-25.4-.3-50.9.6-76.3-.5,1-62.3-.7-124.7.8-187Z" fill="#00ad59"/>
  </g>
  <g>
    <path d="M409.9,76.8c14.4-10.3,32.5-11.7,49.3-13.8,17.9,3.3,37.2,4.1,52.5,15.3-3.2,10.9-7.3,21.6-13,31.5-8.9-1.9-16.7-7-25.6-9.2-10-.6-20,0-29.9-.2-2.3,2.4-4.6,4.7-6.9,7,0,1.6,0,4.8-.1,6.4,3.8,3.9,8,7.2,13.8,7.3,16.7,5.2,35.3,5.8,50.1,15.9,15.8,8.4,24.6,29.9,16.3,46.4-3.7,12.3-12.1,23-24.5,27.1-17.6,11.2-38.8,6.9-58.4,7.6-16.7-1.5-32.4-8.4-47.1-16.3,8.3-9.8,10.7-22.8,17.4-33.7,9.6,8.1,21.9,12,34.1,13.8,11.9,3,25.7,3.6,35.8-4.5,0-1.8,0-5.5,0-7.3-4.2-4.6-9.4-7.4-15.5-8.4-15.4-2.4-30.5-6.4-44.8-12.4-12.1-7.8-21.3-20.2-23-34.7.5-14.8,8-28.5,19.6-37.8Z"/>
    <path d="M1010.5,74.6h43.1c0,8.6,0,17.2,0,25.8h25.8v31.6h-25.8c.2,16-.5,31.9.3,47.9,4.9,7,14.7,2.7,21.9,3.8,2.9,9.3,7.3,18,10.2,27.3-17.1,10.7-39.7,9.9-57.3.7-8.6-6.4-14.6-15.3-18.1-25.3-.3-18.1,0-36.1-.1-54.2h-26.4c3.4-10.5,5.5-21.4,9.8-31.6h16.5v-25.8Z"/>
    <path d="M568.4,109.8c23.6-22.5,66.4-12.1,81.4,15.4,11.3,20.5,10.9,47-.9,67.2-15.8,25.4-52.7,34.3-77.6,16.9v46.2h-43.1V100.5c13.4,0,26.8,0,40.1,0,0,2.4,0,7,0,9.3ZM571.3,144.6v26.6c7,7.3,16.7,16,27.6,11.8,22.4-6.8,21.5-47.2-2.8-50.1-9.7-2.1-18.5,4.8-24.8,11.7Z"/>
    <path d="M667.7,114.1c13-11.3,30.7-14.1,47.2-16.5,13.5-1.4,26.5,2.6,39.1,6.7,8.6,3.1,14.2,10.8,20.2,17.2,2,7.4,5.5,14.6,6.6,22.2.2,23.9,0,47.7,0,71.6-13.4,0-26.8,0-40.1,0,0-2.4,0-7,0-9.3-14,13.4-36.1,15.8-53.5,8.3-13.7-5.3-21.9-19.4-24.1-33.4,1.7-15.3,13.5-28.7,28.7-31.7,15-4.9,31-2,46.6-2.7-3-4.7-4.9-11-10.9-12.6-15.7-6.7-31.2,2.9-46,7.7-1.6-10.3-6.9-19.7-13.8-27.4ZM706.2,175.6c0,3.4,0,6.9,0,10.3,6.7,3.6,14.2,4.2,21.7,3.7,3.2-3.4,6.5-6.7,9.8-9.8,0-3.4,0-6.8,0-10.2-11-.3-22.7-1.6-31.6,6.1Z"/>
    <path d="M777.3,100.6c13.4-.3,26.8,0,40.2-.1,8.1,21.3,13.8,43.4,22.4,64.5,5.3-13.2,9-27,13.9-40.3,3.6-7.8,6.7-15.7,8.3-24.1,12.1,0,24.3,0,36.5,0,8.2,21.2,15,43,21.7,64.7,7.3-12.2,9-26.7,14.8-39.6,3.9-8.1,5.8-16.9,9.6-25,12.6.1,25.3,0,37.9.1-13.9,38.3-27.1,76.7-41.7,114.8h-41.5c-4.2-20.4-15.2-38.5-19.1-59-2.7,9.5-7.3,18.3-10,27.7-3.8,10.5-6,21.8-12.1,31.3-13.3,0-26.6,0-39.8,0-7-15.8-12.3-32.1-17.7-48.5-7.3-16.4-11.8-34-18-50.8-2.2-5-4.6-9.9-5.3-15.4Z"/>
    <path d="M1093.8,100.5h106.2v23.8c-16.8,20.6-34,40.8-52.9,59.5,17.6,0,35.3,0,52.9,0v31.6h-106.2c.1-8.1-.7-16.2.6-24.2,16.4-20.6,33.7-40.4,52.3-59-17.6,0-35.3,0-52.9,0v-31.6Z"/>
  </g>
</svg>