<svg xmlns="http://www.w3.org/2000/svg" width="73" height="49" viewBox="0 0 73 49" fill="none" id="Logo"><g id="logomark"><path d="M46.8671 24C46.8671 36.4264 36.7935 46.5 24.3671 46.5C11.9408 46.5 1.86719 36.4264 1.86719 24C1.86719 11.5736 11.9408 1.5 24.3671 1.5C36.7935 1.5 46.8671 11.5736 46.8671 24Z" fill="#68DBFF"></path><path d="M71.1331 24C71.1331 36.4264 61.1581 46.5 48.8536 46.5C36.5491 46.5 26.5742 36.4264 26.5742 24C26.5742 11.5736 36.5491 1.5 48.8536 1.5C61.1581 1.5 71.1331 11.5736 71.1331 24Z" fill="#FF7917"></path><g id="blend"><path d="M36.6712 42.8418C42.8116 38.8241 46.8683 31.886 46.8683 24.0002C46.8683 16.1146 42.8116 9.17629 36.6712 5.15869C30.5911 9.17629 26.5742 16.1146 26.5742 24.0002C26.5742 31.886 30.5911 38.8241 36.6712 42.8418Z" fill="#5D2C02"></path></g></g></svg>